<?xml version="1.0" encoding="UTF-8"?><!DOCTYPE svg PUBLIC "-//W3C//DTD SVG 1.1//EN" "http://www.w3.org/Graphics/SVG/1.1/DTD/svg11.dtd"><svg xmlns="http://www.w3.org/2000/svg"><symbol id="ico-back-arrow" viewBox="0 0 7 12">
    <path d="M6.842 2.73L3.286 6.286l3.556 3.556a.412.412 0 0 1 .127.3.412.412 0 0 1-.127.302L5.73 11.556a.412.412 0 0 1-.301.127.412.412 0 0 1-.302-.127L.158 6.587a.412.412 0 0 1-.127-.301c0-.116.043-.217.127-.302l4.97-4.968a.412.412 0 0 1 .3-.128c.117 0 .217.043.302.128l1.112 1.111a.412.412 0 0 1 .127.302.412.412 0 0 1-.127.3z" fill-rule="evenodd"/>
</symbol><symbol id="ico-check" viewBox="0 0 14 11">
    <path d="M4.75 8.832L12.688.876l1.062 1.062-9 9L.574 6.762 1.618 5.7z" fill-rule="evenodd"/>
</symbol><symbol id="ico-logo-small" viewBox="0 0 17 17">
    <path d="M9.599 14.794a6.258 6.258 0 0 1 5.195-4.624v4.624H9.6zM2.216 2.195h12.578v5.752c-3.742.376-6.769 3.203-7.451 6.847H2.206l.01-12.599zM0 17h17V0H0v17z" fill-rule="evenodd"/>
</symbol></svg>