<?xml version="1.0" encoding="UTF-8"?><!DOCTYPE svg PUBLIC "-//W3C//DTD SVG 1.1//EN" "http://www.w3.org/Graphics/SVG/1.1/DTD/svg11.dtd"><svg xmlns="http://www.w3.org/2000/svg"><symbol id="ico-arrow-right" viewBox="0 0 7 12">
    <path d="M.158 2.73l3.556 3.556L.158 9.842a.412.412 0 0 0-.127.3c0 .117.043.217.127.302l1.112 1.112a.412.412 0 0 0 .301.127.412.412 0 0 0 .302-.127l4.969-4.969a.412.412 0 0 0 .127-.301.412.412 0 0 0-.127-.302l-4.97-4.968a.412.412 0 0 0-.3-.128.412.412 0 0 0-.302.128L.158 2.127a.412.412 0 0 0-.127.302.41.41 0 0 0 .127.3z" fill-rule="evenodd"/>
</symbol><symbol id="ico-back-arrow" viewBox="0 0 7 12">
    <path d="M6.842 2.73L3.286 6.286l3.556 3.556a.412.412 0 0 1 .127.3.412.412 0 0 1-.127.302L5.73 11.556a.412.412 0 0 1-.301.127.412.412 0 0 1-.302-.127L.158 6.587a.412.412 0 0 1-.127-.301c0-.116.043-.217.127-.302l4.97-4.968a.412.412 0 0 1 .3-.128c.117 0 .217.043.302.128l1.112 1.111a.412.412 0 0 1 .127.302.412.412 0 0 1-.127.3z" fill-rule="evenodd"/>
</symbol><symbol id="ico-bell" viewBox="0 0 14 16">
    <path d="M13.156 11.125c.271.333.485.63.64.89.157.261.173.521.048.782a.766.766 0 0 1-.61.453 4.79 4.79 0 0 1-.656.063H9.656c0 .74-.26 1.37-.781 1.89a2.573 2.573 0 0 1-1.89.781c-.74 0-1.37-.26-1.891-.78a2.575 2.575 0 0 1-.782-1.892H1.454c-.24 0-.487-.028-.742-.085a.78.78 0 0 1-.555-.43c-.125-.26-.114-.529.032-.805.145-.276.343-.58.593-.914.282-.364.589-.779.922-1.242.333-.464.5-.945.5-1.445V5.125c0-.708.123-1.372.367-1.992a5.18 5.18 0 0 1 1.008-1.625A4.67 4.67 0 0 1 5.094.414 4.47 4.47 0 0 1 6.969.016c.677 0 1.307.132 1.89.398.584.266 1.092.63 1.524 1.094.432.463.77 1.005 1.015 1.625.245.62.368 1.284.368 1.992v3.266c0 .51.158 1.005.476 1.484.318.48.623.896.914 1.25zm-6.172 3.813c.448 0 .831-.16 1.149-.477.318-.318.476-.7.476-1.149H5.36c0 .448.16.831.477 1.149.318.318.7.476 1.148.476zm5.704-2.688a5.23 5.23 0 0 0-.172-.227 15.368 15.368 0 0 1-1.258-1.719 3.48 3.48 0 0 1-.555-1.913V5.125a4.27 4.27 0 0 0-.289-1.578 4.107 4.107 0 0 0-.789-1.281 3.745 3.745 0 0 0-1.18-.868 3.42 3.42 0 0 0-1.476-.32 3.39 3.39 0 0 0-1.461.32 3.745 3.745 0 0 0-1.18.868 3.994 3.994 0 0 0-.781 1.28 4.375 4.375 0 0 0-.281 1.579v3.266c0 .677-.196 1.3-.586 1.867a49.713 49.713 0 0 1-1.235 1.726 4.818 4.818 0 0 0-.18.266h11.422z" fill-rule="evenodd"/>
</symbol><symbol id="ico-check" viewBox="0 0 14 11">
    <path d="M4.75 8.832L12.688.876l1.062 1.062-9 9L.574 6.762 1.618 5.7z" fill-rule="evenodd"/>
</symbol><symbol id="ico-dropdown-arrow" viewBox="0 0 10 5">
    <path d="M5 5L0 0h10z" fill-rule="evenodd"/>
</symbol><symbol id="ico-filter" viewBox="0 0 13 14">
    <path d="M12.527.92c.101.244.06.452-.125.625L8 5.946v6.625c0 .25-.116.426-.348.527a.62.62 0 0 1-.223.045.53.53 0 0 1-.402-.17L4.74 10.687a.55.55 0 0 1-.17-.401v-4.34L.17 1.545C-.015 1.372-.057 1.164.045.92A.534.534 0 0 1 .57.57H12c.25 0 .426.116.527.349z" fill-rule="evenodd"/>
</symbol><symbol id="ico-logo-small" viewBox="0 0 17 17">
    <path d="M9.599 14.794a6.258 6.258 0 0 1 5.195-4.624v4.624H9.6zM2.216 2.195h12.578v5.752c-3.742.376-6.769 3.203-7.451 6.847H2.206l.01-12.599zM0 17h17V0H0v17z" fill-rule="evenodd"/>
</symbol><symbol id="ico-search" viewBox="0 0 15 16">
    <path d="M9.107 9.545c.786-.786 1.179-1.73 1.179-2.83 0-1.102-.392-2.044-1.174-2.827-.783-.782-1.725-1.174-2.826-1.174s-2.043.392-2.826 1.174c-.783.783-1.174 1.725-1.174 2.826S2.677 8.757 3.46 9.54c.783.783 1.725 1.174 2.826 1.174 1.1 0 2.041-.39 2.821-1.17zm5.75 4.598c0 .31-.113.577-.34.803-.225.227-.493.34-.803.34-.321 0-.589-.113-.803-.34l-3.063-3.053A6.114 6.114 0 0 1 6.286 13a6.176 6.176 0 0 1-2.442-.496 6.285 6.285 0 0 1-2.01-1.339A6.285 6.285 0 0 1 .497 9.156 6.176 6.176 0 0 1 0 6.714c0-.85.165-1.665.496-2.442a6.285 6.285 0 0 1 1.339-2.009A6.285 6.285 0 0 1 3.844.924 6.176 6.176 0 0 1 6.286.43c.85 0 1.665.165 2.442.495.776.33 1.446.777 2.009 1.34a6.285 6.285 0 0 1 1.339 2.008c.33.777.495 1.591.495 2.442 0 1.31-.369 2.497-1.107 3.563l3.063 3.062c.22.22.33.488.33.804z" fill-rule="evenodd"/>
</symbol></svg>