<?xml version="1.0" encoding="UTF-8"?><!DOCTYPE svg PUBLIC "-//W3C//DTD SVG 1.1//EN" "http://www.w3.org/Graphics/SVG/1.1/DTD/svg11.dtd"><svg xmlns="http://www.w3.org/2000/svg"><symbol id="ico-arrow-right" viewBox="0 0 7 12">
    <path d="M.158 2.73l3.556 3.556L.158 9.842a.412.412 0 0 0-.127.3c0 .117.043.217.127.302l1.112 1.112a.412.412 0 0 0 .301.127.412.412 0 0 0 .302-.127l4.969-4.969a.412.412 0 0 0 .127-.301.412.412 0 0 0-.127-.302l-4.97-4.968a.412.412 0 0 0-.3-.128.412.412 0 0 0-.302.128L.158 2.127a.412.412 0 0 0-.127.302.41.41 0 0 0 .127.3z" fill-rule="evenodd"/>
</symbol><symbol id="ico-back-arrow" viewBox="0 0 7 12">
    <path d="M6.842 2.73L3.286 6.286l3.556 3.556a.412.412 0 0 1 .127.3.412.412 0 0 1-.127.302L5.73 11.556a.412.412 0 0 1-.301.127.412.412 0 0 1-.302-.127L.158 6.587a.412.412 0 0 1-.127-.301c0-.116.043-.217.127-.302l4.97-4.968a.412.412 0 0 1 .3-.128c.117 0 .217.043.302.128l1.112 1.111a.412.412 0 0 1 .127.302.412.412 0 0 1-.127.3z" fill-rule="evenodd"/>
</symbol><symbol id="ico-bell" viewBox="0 0 14 16">
    <path d="M13.156 11.125c.271.333.485.63.64.89.157.261.173.521.048.782a.766.766 0 0 1-.61.453 4.79 4.79 0 0 1-.656.063H9.656c0 .74-.26 1.37-.781 1.89a2.573 2.573 0 0 1-1.89.781c-.74 0-1.37-.26-1.891-.78a2.575 2.575 0 0 1-.782-1.892H1.454c-.24 0-.487-.028-.742-.085a.78.78 0 0 1-.555-.43c-.125-.26-.114-.529.032-.805.145-.276.343-.58.593-.914.282-.364.589-.779.922-1.242.333-.464.5-.945.5-1.445V5.125c0-.708.123-1.372.367-1.992a5.18 5.18 0 0 1 1.008-1.625A4.67 4.67 0 0 1 5.094.414 4.47 4.47 0 0 1 6.969.016c.677 0 1.307.132 1.89.398.584.266 1.092.63 1.524 1.094.432.463.77 1.005 1.015 1.625.245.62.368 1.284.368 1.992v3.266c0 .51.158 1.005.476 1.484.318.48.623.896.914 1.25zm-6.172 3.813c.448 0 .831-.16 1.149-.477.318-.318.476-.7.476-1.149H5.36c0 .448.16.831.477 1.149.318.318.7.476 1.148.476zm5.704-2.688a5.23 5.23 0 0 0-.172-.227 15.368 15.368 0 0 1-1.258-1.719 3.48 3.48 0 0 1-.555-1.913V5.125a4.27 4.27 0 0 0-.289-1.578 4.107 4.107 0 0 0-.789-1.281 3.745 3.745 0 0 0-1.18-.868 3.42 3.42 0 0 0-1.476-.32 3.39 3.39 0 0 0-1.461.32 3.745 3.745 0 0 0-1.18.868 3.994 3.994 0 0 0-.781 1.28 4.375 4.375 0 0 0-.281 1.579v3.266c0 .677-.196 1.3-.586 1.867a49.713 49.713 0 0 1-1.235 1.726 4.818 4.818 0 0 0-.18.266h11.422z" fill-rule="evenodd"/>
</symbol><symbol id="ico-check" viewBox="0 0 14 11">
    <path d="M4.75 8.832L12.688.876l1.062 1.062-9 9L.574 6.762 1.618 5.7z" fill-rule="evenodd"/>
</symbol><symbol id="ico-dropdown-arrow" viewBox="0 0 10 5">
    <path d="M5 5L0 0h10z" fill-rule="evenodd"/>
</symbol><symbol id="ico-filter" viewBox="0 0 13 14">
    <path d="M12.527.92c.101.244.06.452-.125.625L8 5.946v6.625c0 .25-.116.426-.348.527a.62.62 0 0 1-.223.045.53.53 0 0 1-.402-.17L4.74 10.687a.55.55 0 0 1-.17-.401v-4.34L.17 1.545C-.015 1.372-.057 1.164.045.92A.534.534 0 0 1 .57.57H12c.25 0 .426.116.527.349z" fill-rule="evenodd"/>
</symbol><symbol id="ico-logo-small" viewBox="0 0 17 17">
    <path d="M9.599 14.794a6.258 6.258 0 0 1 5.195-4.624v4.624H9.6zM2.216 2.195h12.578v5.752c-3.742.376-6.769 3.203-7.451 6.847H2.206l.01-12.599zM0 17h17V0H0v17z" fill-rule="evenodd"/>
</symbol><symbol id="ico-search" viewBox="0 0 15 16">
    <path d="M9.107 9.545c.786-.786 1.179-1.73 1.179-2.83 0-1.102-.392-2.044-1.174-2.827-.783-.782-1.725-1.174-2.826-1.174s-2.043.392-2.826 1.174c-.783.783-1.174 1.725-1.174 2.826S2.677 8.757 3.46 9.54c.783.783 1.725 1.174 2.826 1.174 1.1 0 2.041-.39 2.821-1.17zm5.75 4.598c0 .31-.113.577-.34.803-.225.227-.493.34-.803.34-.321 0-.589-.113-.803-.34l-3.063-3.053A6.114 6.114 0 0 1 6.286 13a6.176 6.176 0 0 1-2.442-.496 6.285 6.285 0 0 1-2.01-1.339A6.285 6.285 0 0 1 .497 9.156 6.176 6.176 0 0 1 0 6.714c0-.85.165-1.665.496-2.442a6.285 6.285 0 0 1 1.339-2.009A6.285 6.285 0 0 1 3.844.924 6.176 6.176 0 0 1 6.286.43c.85 0 1.665.165 2.442.495.776.33 1.446.777 2.009 1.34a6.285 6.285 0 0 1 1.339 2.008c.33.777.495 1.591.495 2.442 0 1.31-.369 2.497-1.107 3.563l3.063 3.062c.22.22.33.488.33.804z" fill-rule="evenodd"/>
</symbol><symbol id="ico-select-arrow" viewBox="0 0 10 5">
    <path d="M5 5L0 0h10z" fill-rule="evenodd"/>
</symbol><symbol id="ico-sh-email" viewBox="0 0 12 10">
    <text fill-rule="evenodd" font-family="FontAwesome" font-size="12" transform="translate(-840 -465)">
        <tspan x="840" y="474">&#xF003;</tspan>
    </text>
</symbol><symbol id="ico-sh-id" viewBox="0 0 14 11">
    <text fill-rule="evenodd" font-family="FontAwesome" font-size="12" transform="translate(-521 -464)">
        <tspan x="521" y="474">&#xF2C3;</tspan>
    </text>
</symbol><symbol id="ico-sh-name" viewBox="0 0 12 11">
    <text fill-rule="evenodd" font-family="FontAwesome" font-size="12" transform="translate(-257 -463)">
        <tspan x="257" y="473">&#xF031;</tspan>
    </text>
</symbol><symbol id="ico-sh-person" viewBox="0 0 9 11">
    <text fill-rule="evenodd" font-family="FontAwesome" font-size="12" transform="translate(-672 -824)">
        <tspan x="672" y="834">&#xF007;</tspan>
    </text>
</symbol><symbol id="ico-sh-phone" viewBox="0 0 10 10">
    <text fill-rule="evenodd" font-family="FontAwesome" font-size="12" transform="translate(-672 -464)">
        <tspan x="672" y="474">&#xF095;</tspan>
    </text>
</symbol><symbol id="ico-t-calendar" viewBox="0 0 12 13">
    <path d="M.857 11.857h9.429V5H.857v6.857zM3.43 3.714V1.786a.209.209 0 0 0-.06-.154.209.209 0 0 0-.155-.06h-.428a.209.209 0 0 0-.154.06.209.209 0 0 0-.06.154v1.928c0 .063.02.114.06.154.04.04.091.06.154.06h.428c.063 0 .114-.02.154-.06.04-.04.06-.091.06-.154zm5.142 0V1.786a.209.209 0 0 0-.06-.154.209.209 0 0 0-.154-.06H7.93a.209.209 0 0 0-.154.06.209.209 0 0 0-.06.154v1.928c0 .063.02.114.06.154.04.04.091.06.154.06h.428c.063 0 .114-.02.154-.06.04-.04.06-.091.06-.154zm2.572-.428v8.571a.824.824 0 0 1-.255.603.824.824 0 0 1-.602.254H.857a.824.824 0 0 1-.603-.254.824.824 0 0 1-.254-.603V3.286c0-.232.085-.433.254-.603a.823.823 0 0 1 .603-.254h.857v-.643c0-.295.105-.547.315-.757.21-.21.462-.315.757-.315h.428c.295 0 .547.105.757.315.21.21.315.462.315.757v.643h2.571v-.643c0-.295.105-.547.315-.757.21-.21.462-.315.757-.315h.428c.295 0 .547.105.757.315.21.21.315.462.315.757v.643h.857a.82.82 0 0 1 .602.254c.17.17.255.37.255.603z" fill-rule="evenodd"/>
</symbol><symbol id="ico-t-clock" viewBox="0 0 11 11">
    <path d="M6 3.357v3c0 .063-.02.114-.06.154a.209.209 0 0 1-.154.06H3.643a.209.209 0 0 1-.154-.06.209.209 0 0 1-.06-.154V5.93c0-.063.02-.114.06-.154.04-.04.091-.06.154-.06h1.5v-2.36a.21.21 0 0 1 .06-.154.21.21 0 0 1 .154-.06h.429a.21.21 0 0 1 .154.06c.04.04.06.092.06.154zm2.297 4.185a3.56 3.56 0 0 0 .489-1.828c0-.66-.163-1.27-.49-1.828-.325-.558-.767-1-1.325-1.326a3.56 3.56 0 0 0-1.828-.489c-.66 0-1.27.163-1.828.49-.558.325-1 .767-1.326 1.325A3.56 3.56 0 0 0 1.5 5.714c0 .661.163 1.27.489 1.828.326.558.768 1 1.326 1.326a3.56 3.56 0 0 0 1.828.49c.66 0 1.27-.164 1.828-.49.558-.326 1-.768 1.326-1.326zm1.299-4.406c.46.786.69 1.645.69 2.578a5.03 5.03 0 0 1-.69 2.582 5.12 5.12 0 0 1-1.872 1.871 5.03 5.03 0 0 1-2.581.69 5.03 5.03 0 0 1-2.582-.69A5.12 5.12 0 0 1 .69 8.296 5.03 5.03 0 0 1 0 5.714c0-.933.23-1.793.69-2.581A5.12 5.12 0 0 1 2.56 1.26 5.03 5.03 0 0 1 5.142.57c.933 0 1.793.23 2.581.69a5.112 5.112 0 0 1 1.872 1.875z" fill-rule="evenodd"/>
</symbol><symbol id="ico-t-cname" viewBox="0 0 12 11">
    <path d="M4.855 3.458L3.717 6.47c.147 0 .452.004.914.013.462.01.82.014 1.074.014.085 0 .212-.005.382-.014-.388-1.13-.8-2.138-1.232-3.026zM0 10.858l.013-.53c.103-.031.228-.059.375-.084a9.82 9.82 0 0 0 .382-.07c.107-.022.218-.055.332-.097a.802.802 0 0 0 .298-.194.989.989 0 0 0 .207-.338L3.194 5.42 5.07.57h.857c.036.063.06.11.074.141l1.373 3.214c.147.349.384.923.71 1.725.325.801.58 1.414.763 1.838.067.152.196.474.388.967.192.494.353.87.483 1.129.089.2.167.328.234.382.085.066.281.132.59.197.307.065.495.11.562.137.026.17.04.297.04.382l-.003.09a1.586 1.586 0 0 0-.004.084c-.281 0-.705-.018-1.272-.053a22.222 22.222 0 0 0-1.28-.054c-.338 0-.818.016-1.439.047-.62.031-1.018.049-1.192.053 0-.192.01-.366.027-.522l.877-.187.084-.017.104-.024c.018-.004.05-.014.097-.03a.452.452 0 0 0 .174-.097.184.184 0 0 0 .06-.073.242.242 0 0 0 .017-.094c0-.072-.07-.287-.208-.646-.138-.36-.299-.756-.482-1.189a63.936 63.936 0 0 1-.281-.67l-3.014-.013c-.116.259-.286.695-.512 1.31-.225.613-.338.976-.338 1.087a.36.36 0 0 0 .094.251c.062.07.16.124.291.164.132.04.24.07.325.09.085.02.212.04.382.058.17.018.26.027.274.027.005.084.007.214.007.388 0 .04-.005.1-.014.18-.259 0-.648-.022-1.168-.066a14.98 14.98 0 0 0-1.169-.067.967.967 0 0 0-.177.027 7.394 7.394 0 0 1-1.403.12z" fill-rule="evenodd"/>
</symbol><symbol id="ico-t-pencil" viewBox="0 0 11 11">
    <path d="M2.43 10l.61-.61-1.573-1.573-.61.61v.716h.857V10h.717zm3.503-6.214c0-.099-.05-.148-.147-.148a.155.155 0 0 0-.114.047l-3.63 3.63a.155.155 0 0 0-.046.114c0 .098.049.147.147.147a.155.155 0 0 0 .114-.047l3.63-3.63a.155.155 0 0 0 .046-.113zM5.571 2.5l2.786 2.786-5.571 5.571H0V8.071L5.571 2.5zm4.574.643a.82.82 0 0 1-.248.603L8.786 4.857 6 2.071 7.112.967a.796.796 0 0 1 .602-.255c.237 0 .44.085.61.255l1.573 1.566a.858.858 0 0 1 .248.61z" fill-rule="evenodd"/>
</symbol><symbol id="ico-t-status" viewBox="0 0 12 10">
    <path d="M9.429 5.942v2.13c0 .53-.189.985-.566 1.362A1.858 1.858 0 0 1 7.5 10H1.929c-.532 0-.986-.189-1.363-.566A1.858 1.858 0 0 1 0 8.071V2.5c0-.531.189-.985.566-1.363A1.858 1.858 0 0 1 1.929.571H7.5c.281 0 .542.056.783.168a.203.203 0 0 1 .121.154.209.209 0 0 1-.06.194l-.328.328a.212.212 0 0 1-.154.067.213.213 0 0 1-.06-.013 1.191 1.191 0 0 0-.302-.04H1.929a1.03 1.03 0 0 0-.757.314c-.21.21-.315.462-.315.757v5.571c0 .295.105.547.315.757.21.21.462.315.757.315H7.5c.295 0 .547-.105.757-.315.21-.21.314-.462.314-.757v-1.7a.2.2 0 0 1 .06-.148l.43-.428a.212.212 0 0 1 .153-.067c.027 0 .054.006.08.02.09.035.135.1.135.194zm1.546-3.275l-5.45 5.451a.521.521 0 0 1-.382.161.521.521 0 0 1-.382-.16l-2.88-2.88a.521.521 0 0 1-.16-.382c0-.147.054-.274.16-.382l.737-.736A.521.521 0 0 1 3 3.579c.147 0 .275.053.382.16L5.142 5.5l4.333-4.333a.521.521 0 0 1 .382-.16c.147 0 .275.053.382.16l.736.737a.518.518 0 0 1 .161.382.521.521 0 0 1-.16.381z" fill-rule="evenodd"/>
</symbol><symbol id="ico-t-uen" viewBox="0 0 14 11">
    <path d="M6 7.83c0 .246-.07.455-.21.626a.634.634 0 0 1-.507.258H2.431a.634.634 0 0 1-.506-.258.957.957 0 0 1-.21-.626c0-.24.016-.465.05-.673.033-.207.088-.408.164-.602a1.01 1.01 0 0 1 .341-.459.89.89 0 0 1 .542-.167c.286.285.634.428 1.045.428.41 0 .76-.143 1.045-.428.21 0 .39.055.542.167.152.112.266.264.342.459.076.194.13.395.164.602.033.208.05.432.05.673zM4.768 3.946c.25.25.375.554.375.911s-.125.66-.375.91a1.24 1.24 0 0 1-.91.376 1.24 1.24 0 0 1-.912-.375 1.24 1.24 0 0 1-.375-.91c0-.358.125-.662.375-.912s.554-.375.911-.375.66.125.91.375zM12 7.643v.428c0 .063-.02.114-.06.154a.209.209 0 0 1-.154.06H7.07a.209.209 0 0 1-.154-.06.209.209 0 0 1-.06-.154v-.428c0-.063.02-.114.06-.154a.21.21 0 0 1 .154-.06h4.715a.21.21 0 0 1 .154.06c.04.04.06.091.06.154zM9.429 5.929v.428c0 .063-.02.114-.06.154a.209.209 0 0 1-.155.06H7.071a.209.209 0 0 1-.154-.06.209.209 0 0 1-.06-.154V5.93c0-.063.02-.114.06-.154a.21.21 0 0 1 .154-.06h2.143c.063 0 .114.02.154.06.04.04.06.091.06.154zm2.571 0v.428c0 .063-.02.114-.06.154a.209.209 0 0 1-.154.06H10.5a.209.209 0 0 1-.154-.06.209.209 0 0 1-.06-.154V5.93c0-.063.02-.114.06-.154.04-.04.091-.06.154-.06h1.286a.21.21 0 0 1 .154.06c.04.04.06.091.06.154zm0-1.715v.429a.21.21 0 0 1-.06.154.209.209 0 0 1-.154.06H7.07a.209.209 0 0 1-.154-.06.209.209 0 0 1-.06-.154v-.429a.21.21 0 0 1 .06-.154A.21.21 0 0 1 7.07 4h4.715a.21.21 0 0 1 .154.06c.04.04.06.092.06.154zm.857 5.572v-7.5h-12v7.5c0 .058.021.108.064.15a.206.206 0 0 0 .15.064h11.572a.206.206 0 0 0 .15-.064.206.206 0 0 0 .064-.15zm.857-8.143v8.143c0 .294-.105.547-.314.756-.21.21-.462.315-.757.315H1.07c-.294 0-.546-.105-.756-.315A1.032 1.032 0 0 1 0 9.786V1.643c0-.295.105-.547.315-.757.21-.21.462-.315.756-.315h11.572c.295 0 .547.105.757.315.21.21.314.462.314.757z" fill-rule="evenodd"/>
</symbol><symbol id="ico-t-user" viewBox="0 0 9 11">
    <path d="M8.571 9.083c0 .486-.14.904-.418 1.252-.28.348-.615.522-1.008.522H1.426c-.393 0-.728-.174-1.007-.522C.139 9.987 0 9.569 0 9.083c0-.38.019-.738.057-1.075.038-.337.108-.677.21-1.018.104-.342.234-.634.393-.877.158-.244.368-.442.63-.596a1.74 1.74 0 0 1 .9-.231 2.894 2.894 0 0 0 2.096.857c.812 0 1.51-.286 2.096-.857.339 0 .64.077.9.23.262.155.471.353.63.597.158.243.289.535.392.877.102.341.173.68.21 1.018.038.337.057.695.057 1.075zm-2.47-7.755c.504.5.756 1.105.756 1.815s-.251 1.316-.753 1.818a2.477 2.477 0 0 1-1.818.753c-.71 0-1.316-.25-1.818-.753a2.477 2.477 0 0 1-.754-1.818c0-.71.251-1.316.754-1.818A2.477 2.477 0 0 1 4.286.57c.71 0 1.314.253 1.814.757z" fill-rule="evenodd"/>
</symbol></svg>