<svg width="15" height="16" viewBox="0 0 15 16" xmlns="http://www.w3.org/2000/svg">
    <path d="M9.107 9.545c.786-.786 1.179-1.73 1.179-2.83 0-1.102-.392-2.044-1.174-2.827-.783-.782-1.725-1.174-2.826-1.174s-2.043.392-2.826 1.174c-.783.783-1.174 1.725-1.174 2.826S2.677 8.757 3.46 9.54c.783.783 1.725 1.174 2.826 1.174 1.1 0 2.041-.39 2.821-1.17zm5.75 4.598c0 .31-.113.577-.34.803-.225.227-.493.34-.803.34-.321 0-.589-.113-.803-.34l-3.063-3.053A6.114 6.114 0 0 1 6.286 13a6.176 6.176 0 0 1-2.442-.496 6.285 6.285 0 0 1-2.01-1.339A6.285 6.285 0 0 1 .497 9.156 6.176 6.176 0 0 1 0 6.714c0-.85.165-1.665.496-2.442a6.285 6.285 0 0 1 1.339-2.009A6.285 6.285 0 0 1 3.844.924 6.176 6.176 0 0 1 6.286.43c.85 0 1.665.165 2.442.495.776.33 1.446.777 2.009 1.34a6.285 6.285 0 0 1 1.339 2.008c.33.777.495 1.591.495 2.442 0 1.31-.369 2.497-1.107 3.563l3.063 3.062c.22.22.33.488.33.804z" fill="#646C77" fill-rule="evenodd" opacity=".5"/>
</svg>
