<svg width="12" height="11" viewBox="0 0 12 11" xmlns="http://www.w3.org/2000/svg">
    <path d="M4.855 3.458L3.717 6.47c.147 0 .452.004.914.013.462.01.82.014 1.074.014.085 0 .212-.005.382-.014-.388-1.13-.8-2.138-1.232-3.026zM0 10.858l.013-.53c.103-.031.228-.059.375-.084a9.82 9.82 0 0 0 .382-.07c.107-.022.218-.055.332-.097a.802.802 0 0 0 .298-.194.989.989 0 0 0 .207-.338L3.194 5.42 5.07.57h.857c.036.063.06.11.074.141l1.373 3.214c.147.349.384.923.71 1.725.325.801.58 1.414.763 1.838.067.152.196.474.388.967.192.494.353.87.483 1.129.089.2.167.328.234.382.085.066.281.132.59.197.307.065.495.11.562.137.026.17.04.297.04.382l-.003.09a1.586 1.586 0 0 0-.004.084c-.281 0-.705-.018-1.272-.053a22.222 22.222 0 0 0-1.28-.054c-.338 0-.818.016-1.439.047-.62.031-1.018.049-1.192.053 0-.192.01-.366.027-.522l.877-.187.084-.017.104-.024c.018-.004.05-.014.097-.03a.452.452 0 0 0 .174-.097.184.184 0 0 0 .06-.073.242.242 0 0 0 .017-.094c0-.072-.07-.287-.208-.646-.138-.36-.299-.756-.482-1.189a63.936 63.936 0 0 1-.281-.67l-3.014-.013c-.116.259-.286.695-.512 1.31-.225.613-.338.976-.338 1.087 0 .098.031.182.094.251.062.07.16.124.291.164.132.04.24.07.325.09.085.02.212.04.382.058.17.018.26.027.274.027.005.084.007.214.007.388 0 .04-.005.1-.014.18-.259 0-.648-.022-1.168-.066a14.98 14.98 0 0 0-1.169-.067.967.967 0 0 0-.177.027 7.394 7.394 0 0 1-1.403.12z" fill="#646C77" fill-rule="evenodd"/>
</svg>
