<svg width="12" height="13" viewBox="0 0 12 13" xmlns="http://www.w3.org/2000/svg">
    <path d="M.857 11.857h9.429V5H.857v6.857zM3.43 3.714V1.786a.209.209 0 0 0-.06-.154.209.209 0 0 0-.155-.06h-.428a.209.209 0 0 0-.154.06.209.209 0 0 0-.06.154v1.928c0 .063.02.114.06.154.04.04.091.06.154.06h.428c.063 0 .114-.02.154-.06.04-.04.06-.091.06-.154zm5.142 0V1.786a.209.209 0 0 0-.06-.154.209.209 0 0 0-.154-.06H7.93a.209.209 0 0 0-.154.06.209.209 0 0 0-.06.154v1.928c0 .063.02.114.06.154.04.04.091.06.154.06h.428c.063 0 .114-.02.154-.06.04-.04.06-.091.06-.154zm2.572-.428v8.571a.824.824 0 0 1-.255.603.824.824 0 0 1-.602.254H.857a.824.824 0 0 1-.603-.254.824.824 0 0 1-.254-.603V3.286c0-.232.085-.433.254-.603.17-.17.371-.254.603-.254h.857v-.643c0-.295.105-.547.315-.757.21-.21.462-.315.757-.315h.428c.295 0 .547.105.757.315.21.21.315.462.315.757v.643h2.571v-.643c0-.295.105-.547.315-.757.21-.21.462-.315.757-.315h.428c.295 0 .547.105.757.315.21.21.315.462.315.757v.643h.857c.232 0 .433.084.602.254.17.17.255.37.255.603z" fill="#646C77" fill-rule="evenodd"/>
</svg>
