<svg width="11" height="11" viewBox="0 0 11 11" xmlns="http://www.w3.org/2000/svg">
    <path d="M6 3.357v3c0 .063-.02.114-.06.154a.209.209 0 0 1-.154.06H3.643a.209.209 0 0 1-.154-.06.209.209 0 0 1-.06-.154V5.93c0-.063.02-.114.06-.154.04-.04.091-.06.154-.06h1.5V3.356c0-.062.02-.114.06-.154.04-.04.092-.06.154-.06h.429c.062 0 .114.02.154.06.04.04.06.092.06.154zm2.297 4.185a3.56 3.56 0 0 0 .489-1.828c0-.66-.163-1.27-.49-1.828-.325-.558-.767-1-1.325-1.326a3.56 3.56 0 0 0-1.828-.489c-.66 0-1.27.163-1.828.49-.558.325-1 .767-1.326 1.325A3.56 3.56 0 0 0 1.5 5.714c0 .661.163 1.27.489 1.828.326.558.768 1 1.326 1.326a3.56 3.56 0 0 0 1.828.49c.66 0 1.27-.164 1.828-.49.558-.326 1-.768 1.326-1.326zm1.299-4.406c.46.786.69 1.645.69 2.578a5.03 5.03 0 0 1-.69 2.582 5.12 5.12 0 0 1-1.872 1.871 5.03 5.03 0 0 1-2.581.69 5.03 5.03 0 0 1-2.582-.69A5.12 5.12 0 0 1 .69 8.296 5.03 5.03 0 0 1 0 5.714c0-.933.23-1.793.69-2.581A5.12 5.12 0 0 1 2.56 1.26a5.03 5.03 0 0 1 2.582-.69c.933 0 1.793.23 2.581.69a5.112 5.112 0 0 1 1.872 1.875z" fill="#646C77" fill-rule="evenodd"/>
</svg>
