<svg width="11" height="11" viewBox="0 0 11 11" xmlns="http://www.w3.org/2000/svg">
    <path d="M2.43 10l.61-.61-1.573-1.573-.61.61v.716h.857V10h.717zm3.503-6.214c0-.099-.05-.148-.147-.148a.155.155 0 0 0-.114.047l-3.63 3.63a.155.155 0 0 0-.046.114c0 .098.049.147.147.147a.155.155 0 0 0 .114-.047l3.63-3.63a.155.155 0 0 0 .046-.113zM5.571 2.5l2.786 2.786-5.571 5.571H0V8.071L5.571 2.5zm4.574.643a.82.82 0 0 1-.248.603L8.786 4.857 6 2.071 7.112.967a.796.796 0 0 1 .602-.255c.237 0 .44.085.61.255l1.573 1.566a.858.858 0 0 1 .248.61z" fill="#646C77" fill-rule="evenodd"/>
</svg>
