<svg width="12" height="10" viewBox="0 0 12 10" xmlns="http://www.w3.org/2000/svg">
    <path d="M9.429 5.942v2.13c0 .53-.189.985-.566 1.362A1.858 1.858 0 0 1 7.5 10H1.929c-.532 0-.986-.189-1.363-.566A1.858 1.858 0 0 1 0 8.071V2.5c0-.531.189-.985.566-1.363A1.858 1.858 0 0 1 1.929.571H7.5c.281 0 .542.056.783.168a.203.203 0 0 1 .121.154.209.209 0 0 1-.06.194l-.328.328a.212.212 0 0 1-.154.067.213.213 0 0 1-.06-.013 1.191 1.191 0 0 0-.302-.04H1.929c-.295 0-.547.104-.757.314-.21.21-.315.462-.315.757v5.571c0 .295.105.547.315.757.21.21.462.315.757.315H7.5c.295 0 .547-.105.757-.315.21-.21.314-.462.314-.757v-1.7a.2.2 0 0 1 .06-.148l.43-.428a.212.212 0 0 1 .153-.067c.027 0 .054.006.08.02.09.035.135.1.135.194zm1.546-3.275l-5.45 5.451a.521.521 0 0 1-.382.161.521.521 0 0 1-.382-.16l-2.88-2.88a.521.521 0 0 1-.16-.382c0-.147.054-.274.16-.382l.737-.736A.521.521 0 0 1 3 3.579c.147 0 .275.053.382.16L5.142 5.5l4.333-4.333a.521.521 0 0 1 .382-.16c.147 0 .275.053.382.16l.736.737c.108.107.161.234.161.382a.521.521 0 0 1-.16.381z" fill="#646C77" fill-rule="evenodd"/>
</svg>
