<svg width="14" height="11" viewBox="0 0 14 11" xmlns="http://www.w3.org/2000/svg">
    <path d="M6 7.83c0 .246-.07.455-.21.626a.634.634 0 0 1-.507.258H2.431a.634.634 0 0 1-.506-.258.957.957 0 0 1-.21-.626c0-.24.016-.465.05-.673.033-.207.088-.408.164-.602a1.01 1.01 0 0 1 .341-.459.89.89 0 0 1 .542-.167c.286.285.634.428 1.045.428.41 0 .76-.143 1.045-.428.21 0 .39.055.542.167.152.112.266.264.342.459.076.194.13.395.164.602.033.208.05.432.05.673zM4.768 3.946c.25.25.375.554.375.911s-.125.66-.375.91a1.24 1.24 0 0 1-.91.376 1.24 1.24 0 0 1-.912-.375 1.24 1.24 0 0 1-.375-.91c0-.358.125-.662.375-.912s.554-.375.911-.375.66.125.91.375zM12 7.643v.428c0 .063-.02.114-.06.154a.209.209 0 0 1-.154.06H7.07a.209.209 0 0 1-.154-.06.209.209 0 0 1-.06-.154v-.428c0-.063.02-.114.06-.154.04-.04.092-.06.154-.06h4.715c.062 0 .114.02.154.06.04.04.06.091.06.154zM9.429 5.929v.428c0 .063-.02.114-.06.154a.209.209 0 0 1-.155.06H7.071a.209.209 0 0 1-.154-.06.209.209 0 0 1-.06-.154V5.93c0-.063.02-.114.06-.154.04-.04.092-.06.154-.06h2.143c.063 0 .114.02.154.06.04.04.06.091.06.154zm2.571 0v.428c0 .063-.02.114-.06.154a.209.209 0 0 1-.154.06H10.5a.209.209 0 0 1-.154-.06.209.209 0 0 1-.06-.154V5.93c0-.063.02-.114.06-.154.04-.04.091-.06.154-.06h1.286c.062 0 .114.02.154.06.04.04.06.091.06.154zm0-1.715v.429c0 .062-.02.114-.06.154a.209.209 0 0 1-.154.06H7.07a.209.209 0 0 1-.154-.06.209.209 0 0 1-.06-.154v-.429c0-.062.02-.114.06-.154.04-.04.092-.06.154-.06h4.715c.062 0 .114.02.154.06.04.04.06.092.06.154zm.857 5.572v-7.5h-12v7.5c0 .058.021.108.064.15a.206.206 0 0 0 .15.064h11.572a.206.206 0 0 0 .15-.064.206.206 0 0 0 .064-.15zm.857-8.143v8.143c0 .294-.105.547-.314.756-.21.21-.462.315-.757.315H1.07c-.294 0-.546-.105-.756-.315A1.032 1.032 0 0 1 0 9.786V1.643c0-.295.105-.547.315-.757.21-.21.462-.315.756-.315h11.572c.295 0 .547.105.757.315.21.21.314.462.314.757z" fill="#646C77" fill-rule="evenodd"/>
</svg>
