<svg width="9" height="11" viewBox="0 0 9 11" xmlns="http://www.w3.org/2000/svg">
    <path d="M8.571 9.083c0 .486-.14.904-.418 1.252-.28.348-.615.522-1.008.522H1.426c-.393 0-.728-.174-1.007-.522C.139 9.987 0 9.569 0 9.083c0-.38.019-.738.057-1.075.038-.337.108-.677.21-1.018.104-.342.234-.634.393-.877.158-.244.368-.442.63-.596a1.74 1.74 0 0 1 .9-.231 2.894 2.894 0 0 0 2.096.857c.812 0 1.51-.286 2.096-.857.339 0 .64.077.9.23.262.155.471.353.63.597.158.243.289.535.392.877.102.341.173.68.21 1.018.038.337.057.695.057 1.075zm-2.47-7.755c.504.5.756 1.105.756 1.815s-.251 1.316-.753 1.818a2.477 2.477 0 0 1-1.818.753c-.71 0-1.316-.25-1.818-.753a2.477 2.477 0 0 1-.754-1.818c0-.71.251-1.316.754-1.818A2.477 2.477 0 0 1 4.286.57c.71 0 1.314.253 1.814.757z" fill="#646C77" fill-rule="evenodd"/>
</svg>
