<?xml version="1.0" encoding="UTF-8"?>
<svg width="7px" height="12px" viewBox="0 0 7 12" version="1.1" xmlns="http://www.w3.org/2000/svg" xmlns:xlink="http://www.w3.org/1999/xlink">
    <!-- Generator: Sketch 49.2 (51160) - http://www.bohemiancoding.com/sketch -->
    <title>arrow-right</title>
    <desc>Created with Sketch.</desc>
    <defs></defs>
    <g id="7th-Draft" stroke="none" stroke-width="1" fill="none" fill-rule="evenodd">
        <g id="Company-Info---Overview-tab" transform="translate(-232.000000, -107.000000)" fill="#646C77">
            <g id="Group-2-Copy-2" transform="translate(134.000000, 108.000000)">
                <path d="M104.841518,1.72991071 L101.285714,5.28571429 L104.841518,8.84151786 C104.92634,8.92633971 104.96875,9.02678513 104.96875,9.14285714 C104.96875,9.25892915 104.92634,9.35937458 104.841518,9.44419643 L103.729911,10.5558036 C103.645089,10.6406254 103.544643,10.6830357 103.428571,10.6830357 C103.312499,10.6830357 103.212054,10.6406254 103.127232,10.5558036 L98.1584821,5.58705357 C98.0736603,5.50223172 98.03125,5.40178629 98.03125,5.28571429 C98.03125,5.16964228 98.0736603,5.06919685 98.1584821,4.984375 L103.127232,0.015625 C103.212054,-0.0691968527 103.312499,-0.111607143 103.428571,-0.111607143 C103.544643,-0.111607143 103.645089,-0.0691968527 103.729911,0.015625 L104.841518,1.12723214 C104.92634,1.212054 104.96875,1.31249942 104.96875,1.42857143 C104.96875,1.54464344 104.92634,1.64508886 104.841518,1.72991071 Z" id="arrow-right" transform="translate(101.500000, 5.285714) scale(-1, 1) translate(-101.500000, -5.285714) "></path>
            </g>
        </g>
    </g>
</svg>