<?xml version="1.0" encoding="UTF-8"?>
<svg width="14px" height="16px" viewBox="0 0 14 16" version="1.1" xmlns="http://www.w3.org/2000/svg" xmlns:xlink="http://www.w3.org/1999/xlink">
    <!-- Generator: Sketch 49.2 (51160) - http://www.bohemiancoding.com/sketch -->
    <title>Bell - simple-line-icons</title>
    <desc>Created with Sketch.</desc>
    <defs></defs>
    <g id="7th-Draft" stroke="none" stroke-width="1" fill="none" fill-rule="evenodd">
        <g id="Company-list" transform="translate(-1153.000000, -31.000000)" fill="#D02A2A">
            <g id="Group" transform="translate(1153.000000, 25.000000)">
                <path d="M13.15625,17.125 C13.4270847,17.458335 13.6406242,17.755207 13.796875,18.015625 C13.9531258,18.276043 13.9687506,18.536457 13.84375,18.796875 C13.7187494,19.057293 13.5156264,19.2083331 13.234375,19.25 C12.9531236,19.2916669 12.7343758,19.3125 12.578125,19.3125 L9.65625,19.3125 C9.65625,20.052087 9.39583594,20.6822891 8.875,21.203125 C8.35416406,21.7239609 7.72396203,21.984375 6.984375,21.984375 C6.24478797,21.984375 5.61458594,21.7239609 5.09375,21.203125 C4.57291406,20.6822891 4.3125,20.052087 4.3125,19.3125 L1.453125,19.3125 C1.21354047,19.3125 0.966147109,19.2838545 0.7109375,19.2265625 C0.455727891,19.1692705 0.270833906,19.0260428 0.15625,18.796875 C0.031249375,18.536457 0.0416659375,18.2682305 0.1875,17.9921875 C0.333334063,17.7161445 0.53124875,17.41146 0.78125,17.078125 C1.06250141,16.7135398 1.36979,16.2994815 1.703125,15.8359375 C2.03646,15.3723935 2.203125,14.8906275 2.203125,14.390625 L2.203125,11.125 C2.203125,10.4166631 2.32551961,9.75260727 2.5703125,9.1328125 C2.81510539,8.51301773 3.15103953,7.97135648 3.578125,7.5078125 C4.00521047,7.04426852 4.51041375,6.67968883 5.09375,6.4140625 C5.67708625,6.14843617 6.30208,6.015625 6.96875,6.015625 C7.64583672,6.015625 8.27603875,6.14843617 8.859375,6.4140625 C9.44271125,6.67968883 9.95051867,7.04426852 10.3828125,7.5078125 C10.8151063,7.97135648 11.1536446,8.51301773 11.3984375,9.1328125 C11.6432304,9.75260727 11.765625,10.4166631 11.765625,11.125 L11.765625,14.390625 C11.765625,14.9010442 11.9244776,15.3958309 12.2421875,15.875 C12.5598974,16.3541691 12.8645819,16.7708316 13.15625,17.125 Z M6.984375,20.9375 C7.43229391,20.9375 7.81510258,20.7786474 8.1328125,20.4609375 C8.45052242,20.1432276 8.609375,19.7604189 8.609375,19.3125 L5.359375,19.3125 C5.359375,19.7604189 5.51822758,20.1432276 5.8359375,20.4609375 C6.15364742,20.7786474 6.53645609,20.9375 6.984375,20.9375 Z M12.6875,18.25 C12.6354164,18.177083 12.5781253,18.1015629 12.515625,18.0234375 C12.4531247,17.9453121 12.3906253,17.869792 12.328125,17.796875 C11.9843733,17.3802063 11.627606,16.8828154 11.2578125,16.3046875 C10.888019,15.7265596 10.703125,15.0885452 10.703125,14.390625 L10.703125,11.125 C10.703125,10.5624972 10.6067718,10.0364608 10.4140625,9.546875 C10.2213532,9.05728922 9.958335,8.63021016 9.625,8.265625 C9.291665,7.90103984 8.89843977,7.61198023 8.4453125,7.3984375 C7.99218523,7.18489477 7.50000266,7.078125 6.96875,7.078125 C6.44791406,7.078125 5.96093977,7.18489477 5.5078125,7.3984375 C5.05468523,7.61198023 4.66146,7.90103984 4.328125,8.265625 C3.99479,8.63021016 3.73437594,9.05728922 3.546875,9.546875 C3.35937406,10.0364608 3.265625,10.5624972 3.265625,11.125 L3.265625,14.390625 C3.265625,15.0677117 3.07031445,15.6901013 2.6796875,16.2578125 C2.28906055,16.8255237 1.94270984,17.312498 1.640625,17.71875 C1.57812469,17.8020838 1.51302117,17.8906245 1.4453125,17.984375 C1.37760383,18.0781255 1.31770859,18.1666662 1.265625,18.25 L12.6875,18.25 Z" id="Bell---simple-line-icons"></path>
            </g>
        </g>
    </g>
</svg>