<?xml version="1.0" encoding="UTF-8"?>
<svg width="13px" height="14px" viewBox="0 0 13 14" version="1.1" xmlns="http://www.w3.org/2000/svg" xmlns:xlink="http://www.w3.org/1999/xlink">
    <!-- Generator: Sketch 49.2 (51160) - http://www.bohemiancoding.com/sketch -->
    <title>filter</title>
    <desc>Created with Sketch.</desc>
    <defs></defs>
    <g id="7th-Draft" stroke="none" stroke-width="1" fill="none" fill-rule="evenodd" opacity="0.5">
        <g id="Company-list---Expanded-Search" transform="translate(-831.000000, -186.000000)" fill="#646C77">
            <g id="Group-3" transform="translate(815.000000, 56.000000)">
                <path d="M28.5267857,130.919643 C28.6279767,131.163692 28.5863104,131.372023 28.4017857,131.544643 L24,135.946429 L24,142.571429 C24,142.82143 23.8839297,142.997023 23.6517857,143.098214 C23.5744044,143.127976 23.5000004,143.142857 23.4285714,143.142857 C23.2678563,143.142857 23.1339291,143.08631 23.0267857,142.973214 L20.7410714,140.6875 C20.6279756,140.574404 20.5714286,140.440477 20.5714286,140.285714 L20.5714286,135.946429 L16.1696429,131.544643 C15.9851181,131.372023 15.9434519,131.163692 16.0446429,130.919643 C16.1458338,130.687499 16.3214273,130.571429 16.5714286,130.571429 L28,130.571429 C28.2500013,130.571429 28.4255947,130.687499 28.5267857,130.919643 Z" id="filter"></path>
            </g>
        </g>
    </g>
</svg>