<?xml version="1.0" encoding="UTF-8"?>
<svg width="15px" height="16px" viewBox="0 0 15 16" version="1.1" xmlns="http://www.w3.org/2000/svg" xmlns:xlink="http://www.w3.org/1999/xlink">
    <!-- Generator: Sketch 49.2 (51160) - http://www.bohemiancoding.com/sketch -->
    <title>search</title>
    <desc>Created with Sketch.</desc>
    <defs></defs>
    <g id="7th-Draft" stroke="none" stroke-width="1" fill="none" fill-rule="evenodd" opacity="0.5">
        <g id="Company-list" transform="translate(-826.000000, -32.000000)" fill="#646C77">
            <g id="Search" transform="translate(815.000000, 25.000000)">
                <path d="M20.1071429,16.5446429 C20.8928611,15.7589246 21.2857143,14.8154817 21.2857143,13.7142857 C21.2857143,12.6130897 20.8943492,11.6711349 20.1116071,10.8883929 C19.3288651,10.1056508 18.3869103,9.71428571 17.2857143,9.71428571 C16.1845183,9.71428571 15.2425634,10.1056508 14.4598214,10.8883929 C13.6770794,11.6711349 13.2857143,12.6130897 13.2857143,13.7142857 C13.2857143,14.8154817 13.6770794,15.7574366 14.4598214,16.5401786 C15.2425634,17.3229206 16.1845183,17.7142857 17.2857143,17.7142857 C18.3869103,17.7142857 19.3273771,17.3244087 20.1071429,16.5446429 Z M25.8571429,21.1428571 C25.8571429,21.4523825 25.7440487,21.720237 25.5178571,21.9464286 C25.2916655,22.1726202 25.0238111,22.2857143 24.7142857,22.2857143 C24.3928555,22.2857143 24.1250011,22.1726202 23.9107143,21.9464286 L20.8482143,18.8928571 C19.7827328,19.6309561 18.5952446,20 17.2857143,20 C16.4345196,20 15.6205396,19.8348231 14.84375,19.5044643 C14.0669604,19.1741055 13.3973242,18.7276814 12.8348214,18.1651786 C12.2723186,17.6026758 11.8258945,16.9330396 11.4955357,16.15625 C11.1651769,15.3794604 11,14.5654804 11,13.7142857 C11,12.863091 11.1651769,12.049111 11.4955357,11.2723214 C11.8258945,10.4955318 12.2723186,9.82589567 12.8348214,9.26339286 C13.3973242,8.70089004 14.0669604,8.25446594 14.84375,7.92410714 C15.6205396,7.59374835 16.4345196,7.42857143 17.2857143,7.42857143 C18.136909,7.42857143 18.950889,7.59374835 19.7276786,7.92410714 C20.5044682,8.25446594 21.1741043,8.70089004 21.7366071,9.26339286 C22.29911,9.82589567 22.7455341,10.4955318 23.0758929,11.2723214 C23.4062517,12.049111 23.5714286,12.863091 23.5714286,13.7142857 C23.5714286,15.0238161 23.2023846,16.2113042 22.4642857,17.2767857 L25.5267857,20.3392857 C25.7470249,20.5595249 25.8571429,20.8273794 25.8571429,21.1428571 Z" id="search"></path>
            </g>
        </g>
    </g>
</svg>