<?xml version="1.0" encoding="UTF-8"?>
<svg width="12px" height="13px" viewBox="0 0 12 13" version="1.1" xmlns="http://www.w3.org/2000/svg" xmlns:xlink="http://www.w3.org/1999/xlink">
    <!-- Generator: Sketch 49.2 (51160) - http://www.bohemiancoding.com/sketch -->
    <title>t-calendar</title>
    <desc>Created with Sketch.</desc>
    <defs></defs>
    <g id="7th-Draft" stroke="none" stroke-width="1" fill="none" fill-rule="evenodd">
        <g id="Company-list" transform="translate(-937.000000, -131.000000)" fill="#646C77">
            <g id="Group-4-Copy-3" transform="translate(937.000000, 123.000000)">
                <path d="M0.857142857,19.8571429 L10.2857143,19.8571429 L10.2857143,13 L0.857142857,13 L0.857142857,19.8571429 Z M3.42857143,11.7142857 L3.42857143,9.78571429 C3.42857143,9.72321397 3.40848234,9.6718752 3.36830357,9.63169643 C3.3281248,9.59151766 3.27678603,9.57142857 3.21428571,9.57142857 L2.78571429,9.57142857 C2.72321397,9.57142857 2.6718752,9.59151766 2.63169643,9.63169643 C2.59151766,9.6718752 2.57142857,9.72321397 2.57142857,9.78571429 L2.57142857,11.7142857 C2.57142857,11.776786 2.59151766,11.8281248 2.63169643,11.8683036 C2.6718752,11.9084823 2.72321397,11.9285714 2.78571429,11.9285714 L3.21428571,11.9285714 C3.27678603,11.9285714 3.3281248,11.9084823 3.36830357,11.8683036 C3.40848234,11.8281248 3.42857143,11.776786 3.42857143,11.7142857 Z M8.57142857,11.7142857 L8.57142857,9.78571429 C8.57142857,9.72321397 8.55133949,9.6718752 8.51116071,9.63169643 C8.47098194,9.59151766 8.41964317,9.57142857 8.35714286,9.57142857 L7.92857143,9.57142857 C7.86607112,9.57142857 7.81473234,9.59151766 7.77455357,9.63169643 C7.7343748,9.6718752 7.71428571,9.72321397 7.71428571,9.78571429 L7.71428571,11.7142857 C7.71428571,11.776786 7.7343748,11.8281248 7.77455357,11.8683036 C7.81473234,11.9084823 7.86607112,11.9285714 7.92857143,11.9285714 L8.35714286,11.9285714 C8.41964317,11.9285714 8.47098194,11.9084823 8.51116071,11.8683036 C8.55133949,11.8281248 8.57142857,11.776786 8.57142857,11.7142857 Z M11.1428571,11.2857143 L11.1428571,19.8571429 C11.1428571,20.0892869 11.0580366,20.2901777 10.8883929,20.4598214 C10.7187492,20.6294651 10.5178583,20.7142857 10.2857143,20.7142857 L0.857142857,20.7142857 C0.624998839,20.7142857 0.424107991,20.6294651 0.254464286,20.4598214 C0.0848205804,20.2901777 0,20.0892869 0,19.8571429 L0,11.2857143 C0,11.0535703 0.0848205804,10.8526794 0.254464286,10.6830357 C0.424107991,10.513392 0.624998839,10.4285714 0.857142857,10.4285714 L1.71428571,10.4285714 L1.71428571,9.78571429 C1.71428571,9.49106996 1.81919538,9.23884033 2.02901786,9.02901786 C2.23884033,8.81919538 2.49106996,8.71428571 2.78571429,8.71428571 L3.21428571,8.71428571 C3.50893004,8.71428571 3.76115967,8.81919538 3.97098214,9.02901786 C4.18080462,9.23884033 4.28571429,9.49106996 4.28571429,9.78571429 L4.28571429,10.4285714 L6.85714286,10.4285714 L6.85714286,9.78571429 C6.85714286,9.49106996 6.96205252,9.23884033 7.171875,9.02901786 C7.38169748,8.81919538 7.6339271,8.71428571 7.92857143,8.71428571 L8.35714286,8.71428571 C8.65178719,8.71428571 8.90401681,8.81919538 9.11383929,9.02901786 C9.32366176,9.23884033 9.42857143,9.49106996 9.42857143,9.78571429 L9.42857143,10.4285714 L10.2857143,10.4285714 C10.5178583,10.4285714 10.7187492,10.513392 10.8883929,10.6830357 C11.0580366,10.8526794 11.1428571,11.0535703 11.1428571,11.2857143 Z" id="t-calendar"></path>
            </g>
        </g>
    </g>
</svg>