<?xml version="1.0" encoding="UTF-8"?>
<svg width="11px" height="11px" viewBox="0 0 11 11" version="1.1" xmlns="http://www.w3.org/2000/svg" xmlns:xlink="http://www.w3.org/1999/xlink">
    <!-- Generator: Sketch 49.2 (51160) - http://www.bohemiancoding.com/sketch -->
    <title>t-clock</title>
    <desc>Created with Sketch.</desc>
    <defs></defs>
    <g id="7th-Draft" stroke="none" stroke-width="1" fill="none" fill-rule="evenodd">
        <g id="Company-list" transform="translate(-476.000000, -132.000000)" fill="#646C77">
            <g id="Group-3-Copy" transform="translate(476.000000, 123.000000)">
                <path d="M6,12.3571429 L6,15.3571429 C6,15.4196432 5.97991092,15.4709819 5.93973214,15.5111607 C5.89955337,15.5513395 5.8482146,15.5714286 5.78571429,15.5714286 L3.64285714,15.5714286 C3.58035683,15.5714286 3.52901806,15.5513395 3.48883929,15.5111607 C3.44866051,15.4709819 3.42857143,15.4196432 3.42857143,15.3571429 L3.42857143,14.9285714 C3.42857143,14.8660711 3.44866051,14.8147323 3.48883929,14.7745536 C3.52901806,14.7343748 3.58035683,14.7142857 3.64285714,14.7142857 L5.14285714,14.7142857 L5.14285714,12.3571429 C5.14285714,12.2946425 5.16294623,12.2433038 5.203125,12.203125 C5.24330377,12.1629462 5.29464254,12.1428571 5.35714286,12.1428571 L5.78571429,12.1428571 C5.8482146,12.1428571 5.89955337,12.1629462 5.93973214,12.203125 C5.97991092,12.2433038 6,12.2946425 6,12.3571429 Z M8.296875,16.5424107 C8.62276949,15.9843722 8.78571429,15.3750033 8.78571429,14.7142857 C8.78571429,14.0535681 8.62276949,13.4441992 8.296875,12.8861607 C7.97098051,12.3281222 7.52902065,11.8861623 6.97098214,11.5602679 C6.41294364,11.2343734 5.80357473,11.0714286 5.14285714,11.0714286 C4.48213955,11.0714286 3.87277065,11.2343734 3.31473214,11.5602679 C2.75669364,11.8861623 2.31473377,12.3281222 1.98883929,12.8861607 C1.6629448,13.4441992 1.5,14.0535681 1.5,14.7142857 C1.5,15.3750033 1.6629448,15.9843722 1.98883929,16.5424107 C2.31473377,17.1004492 2.75669364,17.5424091 3.31473214,17.8683036 C3.87277065,18.1941981 4.48213955,18.3571429 5.14285714,18.3571429 C5.80357473,18.3571429 6.41294364,18.1941981 6.97098214,17.8683036 C7.52902065,17.5424091 7.97098051,17.1004492 8.296875,16.5424107 Z M9.59598214,12.1361607 C10.0558059,12.9218789 10.2857143,13.7812453 10.2857143,14.7142857 C10.2857143,15.6473261 10.0558059,16.5078086 9.59598214,17.2957589 C9.13615842,18.0837093 8.51228073,18.707587 7.72433036,19.1674107 C6.93637999,19.6272344 6.07589752,19.8571429 5.14285714,19.8571429 C4.20981676,19.8571429 3.3493343,19.6272344 2.56138393,19.1674107 C1.77343356,18.707587 1.14955587,18.0837093 0.689732143,17.2957589 C0.229908415,16.5078086 0,15.6473261 0,14.7142857 C0,13.7812453 0.229908415,12.9207629 0.689732143,12.1328125 C1.14955587,11.3448621 1.77343356,10.7209844 2.56138393,10.2611607 C3.3493343,9.80133699 4.20981676,9.57142857 5.14285714,9.57142857 C6.07589752,9.57142857 6.93637999,9.80133699 7.72433036,10.2611607 C8.51228073,10.7209844 9.13615842,11.3459782 9.59598214,12.1361607 Z" id="t-clock"></path>
            </g>
        </g>
    </g>
</svg>