<?xml version="1.0" encoding="UTF-8"?>
<svg width="11px" height="11px" viewBox="0 0 11 11" version="1.1" xmlns="http://www.w3.org/2000/svg" xmlns:xlink="http://www.w3.org/1999/xlink">
    <!-- Generator: Sketch 49.2 (51160) - http://www.bohemiancoding.com/sketch -->
    <title>t-pencil</title>
    <desc>Created with Sketch.</desc>
    <defs></defs>
    <g id="7th-Draft" stroke="none" stroke-width="1" fill="none" fill-rule="evenodd">
        <g id="Company-list" transform="translate(-1155.000000, -132.000000)" fill="#646C77">
            <g id="Group-4-Copy-4" transform="translate(1155.000000, 123.000000)">
                <path d="M2.43080357,19 L3.04017857,18.390625 L1.46651786,16.8169643 L0.857142857,17.4263393 L0.857142857,18.1428571 L1.71428571,18.1428571 L1.71428571,19 L2.43080357,19 Z M5.93303571,12.7857143 C5.93303571,12.6874995 5.88392906,12.6383929 5.78571429,12.6383929 C5.74107121,12.6383929 5.70312516,12.6540177 5.671875,12.6852679 L2.04241071,16.3147321 C2.01116056,16.3459823 1.99553571,16.3839283 1.99553571,16.4285714 C1.99553571,16.5267862 2.04464237,16.5758929 2.14285714,16.5758929 C2.18750022,16.5758929 2.22544627,16.560268 2.25669643,16.5290179 L5.88616071,12.8995536 C5.91741087,12.8683034 5.93303571,12.8303574 5.93303571,12.7857143 Z M5.57142857,11.5 L8.35714286,14.2857143 L2.78571429,19.8571429 L0,19.8571429 L0,17.0714286 L5.57142857,11.5 Z M10.1450893,12.1428571 C10.1450893,12.3794655 10.0625008,12.5803563 9.89732143,12.7455357 L8.78571429,13.8571429 L6,11.0714286 L7.11160714,9.96651786 C7.27232223,9.79687415 7.47321308,9.71205357 7.71428571,9.71205357 C7.95089404,9.71205357 8.15401701,9.79687415 8.32366071,9.96651786 L9.89732143,11.5334821 C10.0625008,11.7075902 10.1450893,11.9107131 10.1450893,12.1428571 Z" id="t-pencil"></path>
            </g>
        </g>
    </g>
</svg>