<?xml version="1.0" encoding="UTF-8"?>
<svg width="12px" height="10px" viewBox="0 0 12 10" version="1.1" xmlns="http://www.w3.org/2000/svg" xmlns:xlink="http://www.w3.org/1999/xlink">
    <!-- Generator: Sketch 49.2 (51160) - http://www.bohemiancoding.com/sketch -->
    <title>t-status</title>
    <desc>Created with Sketch.</desc>
    <defs></defs>
    <g id="7th-Draft" stroke="none" stroke-width="1" fill="none" fill-rule="evenodd">
        <g id="Company-list" transform="translate(-1058.000000, -132.000000)" fill="#646C77">
            <g id="Group-6" transform="translate(1058.000000, 123.000000)">
                <path d="M9.42857143,14.9419643 L9.42857143,17.0714286 C9.42857143,17.6026812 9.23995724,18.0569178 8.86272321,18.4341518 C8.48548919,18.8113858 8.03125266,19 7.5,19 L1.92857143,19 C1.39731877,19 0.943082243,18.8113858 0.565848214,18.4341518 C0.188614185,18.0569178 0,17.6026812 0,17.0714286 L0,11.5 C0,10.9687473 0.188614185,10.5145108 0.565848214,10.1372768 C0.943082243,9.76004276 1.39731877,9.57142857 1.92857143,9.57142857 L7.5,9.57142857 C7.78125141,9.57142857 8.04240951,9.62723158 8.28348214,9.73883929 C8.35044676,9.77008944 8.39062493,9.82142821 8.40401786,9.89285714 C8.41741078,9.96875038 8.3973217,10.0334819 8.34375,10.0870536 L8.015625,10.4151786 C7.97098192,10.4598217 7.91964315,10.4821429 7.86160714,10.4821429 C7.84821422,10.4821429 7.82812513,10.4776786 7.80133929,10.46875 C7.6986602,10.4419642 7.59821478,10.4285714 7.5,10.4285714 L1.92857143,10.4285714 C1.6339271,10.4285714 1.38169748,10.5334811 1.171875,10.7433036 C0.962052522,10.953126 0.857142857,11.2053557 0.857142857,11.5 L0.857142857,17.0714286 C0.857142857,17.3660729 0.962052522,17.6183025 1.171875,17.828125 C1.38169748,18.0379475 1.6339271,18.1428571 1.92857143,18.1428571 L7.5,18.1428571 C7.79464433,18.1428571 8.04687395,18.0379475 8.25669643,17.828125 C8.46651891,17.6183025 8.57142857,17.3660729 8.57142857,17.0714286 L8.57142857,15.3705357 C8.57142857,15.3124997 8.59151766,15.2633931 8.63169643,15.2232143 L9.06026786,14.7946429 C9.10491094,14.7499998 9.15624971,14.7276786 9.21428571,14.7276786 C9.24107156,14.7276786 9.26785701,14.7343749 9.29464286,14.7477679 C9.38392902,14.7834823 9.42857143,14.8482138 9.42857143,14.9419643 Z M10.9754464,11.6674107 L5.52455357,17.1183036 C5.41741018,17.225447 5.29017931,17.2790179 5.14285714,17.2790179 C4.99553498,17.2790179 4.86830411,17.225447 4.76116071,17.1183036 L1.88169643,14.2388393 C1.77455304,14.1316959 1.72098214,14.004465 1.72098214,13.8571429 C1.72098214,13.7098207 1.77455304,13.5825898 1.88169643,13.4754464 L2.61830357,12.7388393 C2.72544696,12.6316959 2.85267783,12.578125 3,12.578125 C3.14732217,12.578125 3.27455304,12.6316959 3.38169643,12.7388393 L5.14285714,14.5 L9.47544643,10.1674107 C9.58258982,10.0602673 9.70982069,10.0066964 9.85714286,10.0066964 C10.004465,10.0066964 10.1316959,10.0602673 10.2388393,10.1674107 L10.9754464,10.9040179 C11.0825898,11.0111612 11.1361607,11.1383921 11.1361607,11.2857143 C11.1361607,11.4330365 11.0825898,11.5602673 10.9754464,11.6674107 Z" id="t-status"></path>
            </g>
        </g>
    </g>
</svg>